<svg version="1.1" id="Layer_1" xmlns="http://www.w3.org/2000/svg" xmlns:xlink="http://www.w3.org/1999/xlink" x="0px" y="0px"
	 width="100%" viewBox="0 0 1024 944" enable-background="new 0 0 1024 944" xml:space="preserve">
<path fill="#000000" opacity="1.000000" stroke="none" 
	d="
M715.805786,596.093506 
	C727.645081,602.611633 738.605225,609.951721 750.622253,615.388977 
	C775.384827,626.592896 799.714417,625.115662 823.742981,613.048462 
	C831.688843,609.058105 838.746277,603.822754 845.560059,598.186646 
	C848.296692,595.923096 851.260498,593.630127 854.982788,596.071594 
	C858.593018,598.439453 858.019470,602.140808 857.238403,605.580505 
	C850.247620,636.367371 838.257629,665.171692 822.112122,692.220764 
	C803.791382,722.913879 780.785645,749.858704 754.527466,773.970337 
	C739.540161,787.732544 722.913940,799.440674 705.722412,810.371094 
	C682.726868,824.991577 658.478149,837.153625 633.153625,847.001831 
	C607.818970,856.853882 581.613342,863.812622 554.575989,867.361511 
	C540.859131,869.162048 527.109741,870.165588 513.266357,870.209839 
	C482.248474,870.309143 452.020996,865.354858 422.276520,856.778625 
	C374.866302,843.108826 332.589478,819.805725 293.945557,789.415466 
	C253.660828,757.734924 220.471405,719.883057 194.639862,675.673706 
	C183.690903,656.935242 175.534073,636.860352 168.691803,616.269470 
	C167.608566,613.009644 167.766953,609.967468 170.739120,607.701050 
	C173.755554,605.400940 176.627167,606.323486 179.499298,608.188538 
	C191.556839,616.018066 204.261932,622.418823 218.018478,626.861267 
	C238.670303,633.530396 259.713989,633.660217 280.676361,630.149231 
	C296.946442,627.424316 311.828033,620.114563 326.318817,612.272644 
	C329.847351,610.363037 330.897644,607.684631 330.893646,603.722656 
	C330.811371,521.912720 330.856567,440.102783 330.882721,358.292816 
	C330.886749,345.631348 330.963318,332.969757 330.921631,320.308502 
	C330.904175,314.999603 329.968323,314.333984 324.618195,314.849701 
	C322.308899,315.072327 319.949036,315.243958 317.651306,315.025848 
	C310.401642,314.337708 307.880341,308.958618 312.038666,303.081329 
	C313.375641,301.191711 315.011902,299.488678 316.656921,297.846222 
	C327.125885,287.393890 337.667816,277.014557 348.122192,266.547729 
	C357.291260,257.367767 366.433746,248.159485 375.456268,238.836258 
	C377.477325,236.747818 379.780548,236.751907 382.288147,236.595810 
	C386.728210,236.319427 392.193359,238.584549 395.352386,235.533478 
	C398.576813,232.419250 395.772736,227.023361 395.923828,222.636658 
	C396.094055,217.692444 397.097473,212.805374 396.277039,207.729630 
	C395.569611,203.353104 398.770050,200.095352 403.532043,199.996368 
	C415.023987,199.757507 426.526917,199.777420 438.019775,199.993500 
	C442.376984,200.075439 444.863983,203.262924 443.997650,208.013779 
	C442.728943,214.970810 444.645660,221.846497 443.599365,228.862122 
	C442.616333,235.453583 444.589905,236.704971 451.112640,236.703873 
	C482.593781,236.698563 514.074951,236.737000 545.556091,236.740189 
	C574.018799,236.743088 602.486938,237.022598 630.940613,236.510208 
	C638.671265,236.371002 644.168823,238.529251 648.910706,244.391663 
	C657.608704,255.145096 668.130127,264.181702 677.686951,274.133972 
	C687.119080,283.956360 696.523865,293.818085 706.746033,302.858337 
	C711.252441,306.843750 709.795532,312.669861 704.026123,314.490295 
	C700.776184,315.515778 697.412537,315.058685 694.091858,315.018494 
	C687.575928,314.939636 687.256470,315.189880 687.254944,321.604156 
	C687.243469,369.760895 687.250244,417.917664 687.245483,466.074402 
	C687.241699,504.066254 687.312561,542.058533 687.108582,580.049377 
	C687.085083,584.432739 688.715149,586.339172 692.562988,587.520813 
	C700.346069,589.910950 708.293030,591.895142 715.805786,596.093506 
M666.090515,585.613403 
	C667.749329,585.468384 669.405579,585.261414 671.067566,585.192627 
	C673.689575,585.084106 674.244202,583.772766 674.160767,581.262329 
	C673.742554,568.672607 674.274963,556.078552 674.104797,543.476868 
	C673.910400,529.082397 674.042419,514.675842 673.935181,500.271881 
	C673.735657,473.476074 674.037170,446.676666 673.866028,419.880463 
	C673.806580,410.577637 674.135681,401.275330 674.145874,391.977386 
	C674.153259,385.194733 673.585632,378.394196 674.044434,371.586395 
	C674.500244,364.823944 674.834045,358.005096 674.489746,351.248260 
	C673.991455,341.472443 674.362427,331.732239 674.771423,321.988098 
	C674.946106,317.827576 673.802795,315.478455 669.319275,314.703217 
	C664.579773,313.883789 660.033630,315.094757 655.393799,315.095093 
	C604.906677,315.098511 554.419495,315.142853 503.932343,315.145386 
	C452.611115,315.147980 401.289764,315.168640 349.968964,315.011383 
	C345.284729,314.997040 343.940704,316.627319 344.032013,321.086395 
	C344.267334,332.577484 344.140869,344.076233 344.135803,355.571930 
	C344.100403,435.551453 344.055267,515.531006 344.042664,595.510498 
	C344.042358,597.436584 343.571472,599.519409 345.430359,601.643005 
	C365.478119,594.002075 385.514374,585.836548 407.670624,585.397034 
	C429.746124,584.959167 451.404785,586.460449 472.194702,595.778503 
	C473.264587,591.136108 473.495850,587.209778 473.478333,583.250061 
	C473.403534,566.321899 473.350586,549.393738 473.264954,532.465637 
	C473.222534,524.080811 477.584442,517.378296 482.562134,511.493164 
	C489.312042,503.512695 498.685913,500.153473 509.149445,499.800781 
	C525.797913,499.239655 540.010498,511.427582 543.370483,526.309021 
	C546.150208,538.620667 544.678162,551.139893 544.632751,563.512573 
	C544.561340,582.959167 544.649963,602.399597 544.725891,621.844360 
	C544.746704,627.183167 547.746460,627.677856 551.371643,627.472046 
	C565.858276,626.649475 579.083496,621.685974 591.812866,614.976624 
	C602.653687,609.262634 612.195557,601.419312 623.594360,596.562439 
	C636.975830,590.860901 650.276489,585.343628 666.090515,585.613403 
M835.371948,620.940613 
	C832.600647,622.791382 829.776978,624.568848 827.065979,626.504089 
	C797.327148,647.733643 766.092346,665.748596 730.030823,674.338928 
	C714.762268,677.976135 699.450378,681.168213 683.844788,681.980774 
	C667.236816,682.845459 650.601929,682.625793 633.975952,680.502258 
	C615.563599,678.150635 597.588318,673.987793 580.179443,667.943542 
	C554.834229,659.143921 532.385010,644.725769 510.247467,629.783020 
	C493.963531,618.791443 477.169556,608.605957 457.810181,603.581421 
	C435.849182,597.881470 413.878479,595.191711 391.248657,599.916016 
	C373.010864,603.723511 356.014160,610.406677 339.683624,619.108032 
	C323.076294,627.956970 306.448517,636.547424 287.846832,640.882507 
	C259.366486,647.519714 231.690445,645.805786 204.572525,634.927185 
	C198.682129,632.564270 192.836044,630.090942 186.447205,627.452698 
	C186.666168,628.907104 186.643799,629.586182 186.873581,630.165283 
	C195.130768,650.975159 205.320328,670.726440 217.715607,689.439880 
	C223.029495,697.462402 230.203918,700.829407 238.913498,702.657898 
	C263.936737,707.911316 288.196411,705.209106 311.917114,696.034607 
	C325.799347,690.665405 338.299133,682.587097 351.604126,676.085815 
	C371.930420,666.153809 393.154907,659.976501 415.916321,659.950073 
	C446.672394,659.914368 473.895172,670.815247 499.094788,687.487305 
	C513.814270,697.225586 528.099121,707.646667 543.707947,715.963928 
	C572.812012,731.472168 603.805359,740.705688 636.642212,744.047546 
	C661.357300,746.562805 685.892395,745.590698 710.064636,740.170532 
	C740.668579,733.308105 769.679810,722.310547 795.545471,704.046509 
	C798.199768,702.172363 801.308411,701.297974 803.419189,698.255615 
	C814.402954,682.424377 822.892151,665.285767 830.436462,647.660522 
	C833.773193,639.865173 836.486084,631.793213 839.240173,623.763794 
	C840.117371,621.206299 840.506653,618.078918 835.371948,620.940613 
M372.078644,680.643799 
	C357.151703,686.492432 343.352234,694.646362 329.020660,701.711853 
	C302.671234,714.701965 275.031219,720.235962 245.716858,716.298889 
	C243.325363,715.977722 240.983063,714.713074 238.356201,715.687256 
	C238.820450,718.047363 240.570663,719.434814 241.912506,721.059082 
	C255.520935,737.531311 270.634216,752.530518 286.482422,766.832397 
	C289.546265,769.597229 292.759460,770.904175 296.820343,770.872192 
	C309.736786,770.770386 321.714996,766.917969 333.441376,761.986511 
	C346.933075,756.312561 359.397552,748.468628 373.120514,743.269775 
	C390.018280,736.868286 407.388855,733.399414 425.438385,735.910278 
	C446.372467,738.822510 465.502136,746.427979 482.709198,758.943604 
	C497.920410,770.007629 513.637512,780.383179 530.566162,788.663940 
	C553.926086,800.090698 578.484009,807.315918 604.488220,810.057678 
	C627.023193,812.433655 649.348999,812.121277 671.478149,807.517334 
	C681.351013,805.463257 691.754272,803.932495 700.461243,798.696777 
	C723.701111,784.721985 744.276917,767.273682 763.267639,747.949097 
	C769.102295,742.011902 774.777527,735.939819 780.032349,728.451965 
	C768.901855,733.102783 758.984070,738.193420 748.407043,741.885071 
	C703.252625,757.645142 657.366516,762.148438 610.261597,752.337341 
	C577.636536,745.542114 547.050537,733.929321 519.175659,715.514160 
	C507.776947,707.983887 496.624329,700.063782 485.031647,692.848206 
	C462.922424,679.086731 438.849213,671.749207 412.636871,672.346985 
	C398.907501,672.660095 385.478546,674.706726 372.078644,680.643799 
M634.710693,833.146057 
	C638.215637,831.609009 641.736694,830.107300 645.220886,828.524719 
	C648.511780,827.030090 651.764038,825.450500 655.033325,823.908325 
	C637.554199,824.771057 620.466064,824.323792 603.370728,822.413025 
	C565.073853,818.132324 530.232361,804.659851 497.874695,783.969971 
	C482.905548,774.398560 469.367798,762.634827 452.628204,755.715454 
	C431.577515,747.014038 410.321564,744.746460 388.269287,750.804810 
	C378.890991,753.381287 370.273834,757.779358 361.578827,761.939575 
	C346.868103,768.978027 332.413666,776.593933 316.359833,780.307068 
	C313.051392,781.072266 309.746246,781.851990 305.292236,782.893311 
	C406.813232,857.683472 515.058289,880.382690 634.710693,833.146057 
M399.502167,301.860413 
	C436.326324,301.901276 473.150452,301.972107 509.974609,301.976166 
	C566.628113,301.982361 623.281555,301.946106 679.935059,301.904999 
	C681.512695,301.903870 683.329834,302.414734 684.864563,299.759674 
	C680.153015,296.074066 676.641968,290.993286 672.269592,286.645966 
	C662.851868,277.282257 653.210327,268.117981 644.235291,258.344238 
	C638.760071,252.381699 632.951538,249.477661 624.684143,250.091553 
	C615.239136,250.792877 605.703430,250.280045 596.207092,250.280075 
	C526.891785,250.280350 457.576447,250.276108 388.261108,250.278122 
	C385.923462,250.278183 383.005798,249.833130 381.565460,251.591873 
	C377.726410,256.279602 372.008179,258.847778 368.425934,263.687286 
	C362.383148,271.850983 353.807861,277.562775 347.637787,285.680054 
	C344.120026,290.307983 339.142029,293.818268 334.886169,297.899170 
	C334.007080,298.742096 332.602448,299.477142 333.405273,301.809845 
	C354.978607,301.809845 376.740570,301.809845 399.502167,301.860413 
M667.521118,670.689331 
	C708.476929,670.467102 780.889526,649.517090 789.325989,635.404236 
	C788.826355,635.286499 788.343323,635.061462 787.867981,635.076660 
	C763.520996,635.855347 742.492249,626.516724 722.427490,613.931702 
	C709.046082,605.538391 694.657104,599.097656 678.843140,597.535645 
	C654.260803,595.107422 632.427917,603.800415 612.187866,616.707397 
	C603.520325,622.234619 594.529785,627.327393 585.448547,631.806030 
	C577.826050,635.565308 569.012329,638.064087 560.035706,638.432739 
	C557.326416,638.544006 554.455383,638.662537 551.878662,640.237366 
	C564.765259,652.061035 620.729065,671.299500 667.521118,670.689331 
M486.319153,584.498169 
	C486.279510,588.990112 486.339020,593.485901 486.163116,597.972473 
	C486.057129,600.675171 487.060211,602.361938 489.584625,603.340271 
	C493.775757,604.964294 497.600983,607.196899 501.332214,609.769592 
	C509.408844,615.338379 517.997070,620.057251 527.155762,623.686584 
	C529.947754,624.792969 531.289917,624.493103 531.877075,621.098938 
	C532.946106,614.919556 531.682251,608.834290 531.740479,602.704529 
	C531.953369,580.271667 531.975220,557.835205 531.844177,535.401428 
	C531.761230,521.206055 520.952087,511.665710 510.641907,511.838409 
	C496.476349,512.075562 486.468384,519.742432 486.179504,535.591431 
	C485.888519,551.554443 486.239624,567.529236 486.319153,584.498169 
M415.794891,236.740265 
	C420.894196,236.580002 426.035156,237.195312 431.457825,236.038712 
	C431.457825,229.516617 431.536072,223.100861 431.416077,216.688797 
	C431.373169,214.395691 430.009430,213.093246 427.542664,213.114441 
	C422.735687,213.155746 417.927734,213.164154 413.120911,213.114883 
	C410.123535,213.084183 409.091583,214.468414 409.212646,217.428207 
	C409.395416,221.895767 409.404510,226.388916 409.142242,230.850891 
	C408.889984,235.142197 410.593079,237.090057 415.794891,236.740265 
z"/>
<path fill="#000000" opacity="1.000000" stroke="none" 
	d="
M468.815308,479.501831 
	C463.219818,479.406097 458.061005,479.315857 452.906555,479.114075 
	C446.544983,478.865021 444.698975,477.527618 444.330688,471.239349 
	C443.542267,457.778748 443.580566,444.279663 444.211731,430.815735 
	C444.384521,427.129303 443.611938,423.560638 443.938599,419.896698 
	C444.463715,414.006470 446.074738,412.138947 451.928375,412.130920 
	C457.581238,412.123138 463.238586,412.381714 468.886108,412.674713 
	C472.006287,412.836548 473.138031,412.022003 473.110626,408.481506 
	C472.965088,389.688599 472.266174,370.889587 473.441742,352.098083 
	C474.291656,338.511688 474.168152,338.022522 487.856506,337.666809 
	C504.643250,337.230499 521.453552,337.727997 538.253845,337.767365 
	C542.648987,337.777649 544.116394,340.546692 544.237549,344.207031 
	C544.864319,363.139648 545.676208,382.074860 544.488708,401.018280 
	C544.395813,402.500275 544.515564,404.013733 544.700623,405.492004 
	C545.652344,413.092621 546.174255,413.483490 553.892395,412.148834 
	C559.089600,411.250092 564.170532,412.565918 569.288818,412.938416 
	C572.045898,413.139130 572.895813,415.787415 573.145325,418.139526 
	C573.582336,422.259064 573.911316,426.414459 573.895203,430.553314 
	C573.841553,444.367188 574.610840,458.194580 573.389038,471.992432 
	C572.884155,477.694397 571.341431,479.226166 565.482422,479.242126 
	C544.725891,479.298737 523.968994,479.213440 503.212341,479.238831 
	C491.892822,479.252686 480.573395,479.381104 468.815308,479.501831 
M512.498169,350.215546 
	C503.732422,350.215546 494.966675,350.215546 486.081329,350.215546 
	C486.081329,370.002014 486.119354,389.088379 486.047607,408.174347 
	C486.034088,411.766571 487.495758,412.522064 490.956787,412.374451 
	C503.071198,411.857849 515.216187,411.136230 527.313965,412.590942 
	C530.572144,412.982758 531.931702,412.064423 531.924988,408.704590 
	C531.889343,390.953247 531.901794,373.201324 532.025391,355.450531 
	C532.050842,351.797546 530.439636,350.270172 526.971680,350.263794 
	C522.479980,350.255554 517.988281,350.223450 512.498169,350.215546 
M497.634735,425.853943 
	C494.814514,425.707062 491.995087,425.464386 489.173889,425.441467 
	C486.590515,425.420502 485.197235,426.448639 485.621399,429.450012 
	C486.789398,437.715118 486.230896,446.047791 486.109985,454.343964 
	C485.928558,466.793365 485.769196,466.703613 498.357239,465.871307 
	C501.513947,465.662537 502.827942,464.501129 502.804108,461.339996 
	C502.726501,451.032196 502.676727,440.721863 502.836975,430.415955 
	C502.887695,427.155090 501.640961,425.787384 497.634735,425.853943 
M532.510925,427.826874 
	C530.076111,424.580841 526.496094,425.939484 523.388489,425.713531 
	C520.939087,425.535461 518.196289,424.506378 516.012451,425.786652 
	C512.385315,427.913177 516.347412,430.405640 516.240417,432.839478 
	C515.897522,440.643097 516.193054,448.472137 516.021423,456.286530 
	C515.816162,465.631592 515.717590,465.629456 525.276672,465.730804 
	C531.691406,465.798828 531.711670,465.572418 531.859985,458.947601 
	C532.086243,448.840515 531.324707,438.710358 532.510925,427.826874 
M554.360168,465.795532 
	C560.751709,465.546387 561.532776,464.739807 560.632690,457.782654 
	C559.394287,448.209900 560.708130,438.674835 560.758728,429.124420 
	C560.771729,426.666931 560.422302,425.302551 557.594666,425.427368 
	C554.783142,425.551483 551.953369,425.461487 549.140503,425.304840 
	C545.576599,425.106476 544.176453,426.261841 544.395935,430.207092 
	C544.903015,439.322571 545.064148,448.472321 544.949341,457.602905 
	C544.847229,465.730011 545.232422,466.344971 554.360168,465.795532 
M469.172302,465.808258 
	C472.420532,465.969421 472.988220,463.988281 472.960724,461.298309 
	C472.875702,452.974335 473.118011,444.638977 472.744476,436.330017 
	C472.596130,433.030090 474.725250,429.202789 472.708282,426.685150 
	C470.312531,423.694611 466.069611,426.437897 462.664978,425.622589 
	C458.527924,424.631927 456.945221,426.756226 457.022400,430.826385 
	C457.170837,438.652863 457.158844,446.484009 457.101166,454.312347 
	C457.018616,465.511719 456.975616,465.511414 469.172302,465.808258 
z"/>
<path fill="#000000" opacity="1.000000" stroke="none" 
	d="
M430.619446,423.482300 
	C428.438263,426.122284 425.734039,426.145905 423.064514,426.146454 
	C409.753906,426.149078 396.442902,426.170502 383.132874,426.073578 
	C376.778107,426.027313 374.020935,422.321533 374.494293,416.135895 
	C374.973877,409.868500 375.219421,403.483765 374.571442,397.253998 
	C373.704315,388.917175 374.688599,380.666260 374.767090,372.390900 
	C374.916077,356.683746 383.839722,345.589325 400.570465,343.329803 
	C414.630127,341.431000 423.853210,348.847687 430.099487,361.521881 
	C432.163330,365.709625 433.180664,370.088135 433.011200,374.957733 
	C432.560791,387.901947 432.742889,400.867004 432.440857,413.818390 
	C432.368195,416.933014 431.392273,420.026642 430.619446,423.482300 
M390.241486,363.965210 
	C388.920105,365.759644 388.162262,367.771698 388.151825,369.997498 
	C388.090179,383.138245 388.075012,396.279297 388.006714,409.420013 
	C387.992798,412.095215 388.958618,413.266449 391.873047,413.171906 
	C398.999237,412.940704 406.139282,412.858368 413.266144,413.030701 
	C417.585663,413.135193 418.953888,411.506409 418.998505,407.168701 
	C419.130219,394.356384 418.587585,381.574432 418.020233,368.788086 
	C417.779907,363.371613 413.189941,358.700378 408.002167,357.183624 
	C400.515930,354.994843 395.095001,357.488678 390.241486,363.965210 
z"/>
<path fill="#000000" opacity="1.000000" stroke="none" 
	d="
M374.699341,548.626953 
	C374.835907,537.571960 374.267670,526.949097 374.806152,516.310852 
	C375.494720,502.706207 387.806122,490.573547 401.409271,489.975128 
	C413.534851,489.441681 421.432190,495.515076 428.148254,504.840759 
	C432.249420,510.535522 432.743073,516.757324 432.548126,523.005127 
	C432.180664,534.783386 432.609497,546.540100 432.698334,558.303284 
	C432.718597,560.991760 432.694305,563.618896 432.130005,566.221680 
	C430.778656,572.455017 429.249359,573.033203 422.739258,572.713928 
	C415.293365,572.348694 407.803802,572.958923 400.332367,573.004028 
	C393.863617,573.043091 387.371643,573.176453 380.933380,572.691589 
	C377.657928,572.444885 375.024353,570.222107 374.887604,566.517822 
	C374.672913,560.701965 374.747559,554.875427 374.699341,548.626953 
M388.030945,548.342896 
	C387.991760,550.005798 388.082886,551.684021 387.890167,553.328979 
	C387.169098,559.484924 387.180176,559.080261 393.163879,559.766357 
	C400.818176,560.643982 408.346863,557.964844 416.003204,559.509888 
	C418.245636,559.962402 419.797729,558.384033 419.587860,555.841980 
	C418.505341,542.729004 419.576202,529.578735 418.910095,516.465820 
	C418.443451,507.279602 412.169525,502.634979 401.442535,503.111053 
	C393.957153,503.443268 387.539215,510.323456 387.632660,517.950867 
	C387.752899,527.761169 387.898071,537.571228 388.030945,548.342896 
z"/>
<path fill="#000000" opacity="1.000000" stroke="none" 
	d="
M607.088684,343.678802 
	C614.428772,343.006500 621.247131,341.828033 627.933716,345.536194 
	C639.385437,351.886902 643.975342,361.898590 644.117859,374.349670 
	C644.285278,388.984924 644.129333,403.623962 644.097290,418.261322 
	C644.088318,422.358765 642.180054,424.907471 637.966431,425.334930 
	C623.851990,426.766724 609.694275,425.991547 595.559937,425.932373 
	C589.457703,425.906830 587.155334,422.480377 586.959900,416.217957 
	C586.507812,401.731750 587.767029,387.278351 587.302795,372.774536 
	C586.876831,359.466461 595.877014,347.409668 607.088684,343.678802 
M599.971130,371.269836 
	C599.831726,371.747772 599.570618,372.225739 599.570801,372.703644 
	C599.574951,384.814484 599.647644,396.925446 599.603943,409.036041 
	C599.593262,412.001984 601.262939,412.748840 603.721313,412.756409 
	C611.203003,412.779358 618.684692,412.797516 626.166321,412.781036 
	C629.828369,412.772949 631.638855,410.944214 631.627319,407.216827 
	C631.590820,395.411804 631.938049,383.594086 631.482422,371.806549 
	C631.234192,365.383911 628.231018,359.675232 621.744995,357.407928 
	C615.524780,355.233521 609.343628,355.882996 604.018066,360.483307 
	C600.883545,363.190918 601.397522,367.139984 599.971130,371.269836 
z"/>
<path fill="#000000" opacity="1.000000" stroke="none" 
	d="
M640.119934,572.334717 
	C624.711731,572.897888 609.637390,573.230042 594.564697,572.466125 
	C589.926514,572.231079 587.545593,569.499695 587.391724,565.165405 
	C587.096741,556.856506 586.664124,548.500122 587.233704,540.228516 
	C587.749268,532.741577 587.311401,525.288757 587.502563,517.824524 
	C587.839539,504.671906 597.105957,492.862091 610.026123,490.237427 
	C624.952026,487.205261 640.966736,498.538361 643.222107,513.926636 
	C644.919312,525.506897 643.915955,537.180237 643.998779,548.814819 
	C644.031799,553.456116 644.053406,558.098511 644.176758,562.737854 
	C644.274902,566.427734 643.322021,569.640747 640.119934,572.334717 
M631.631897,551.349731 
	C631.430359,539.703674 632.251343,528.035645 630.895081,516.414612 
	C629.977722,508.554413 624.581726,503.520172 616.203430,502.683075 
	C608.779114,501.941254 602.855225,506.112091 600.765991,513.822693 
	C599.633301,518.002808 599.080933,522.364685 599.485413,526.663574 
	C600.346619,535.815796 600.384216,544.949646 599.543579,554.082275 
	C599.254333,557.224915 600.131653,558.773376 603.505798,558.803894 
	C610.806396,558.869934 618.058167,559.606628 625.421509,559.084351 
	C630.481750,558.725403 632.431091,557.209106 631.631897,551.349731 
z"/>
</svg>